<svg width="435" height="242" viewBox="0 0 435 242" fill="none" xmlns="http://www.w3.org/2000/svg">
<path d="M136.879 42.8125V185H117.934L46.3516 75.332V185H27.5039V42.8125H46.3516L118.227 152.773V42.8125H136.879ZM222.719 129.238H184.73V113.906H222.719C230.076 113.906 236.033 112.734 240.59 110.391C245.147 108.047 248.467 104.792 250.551 100.625C252.699 96.4583 253.773 91.7057 253.773 86.3672C253.773 81.4844 252.699 76.8945 250.551 72.5977C248.467 68.3008 245.147 64.8503 240.59 62.2461C236.033 59.5768 230.076 58.2422 222.719 58.2422H189.125V185H170.277V42.8125H222.719C233.461 42.8125 242.543 44.668 249.965 48.3789C257.387 52.0898 263.018 57.2331 266.859 63.8086C270.701 70.319 272.621 77.7734 272.621 86.1719C272.621 95.2865 270.701 103.066 266.859 109.512C263.018 115.957 257.387 120.872 249.965 124.258C242.543 127.578 233.461 129.238 222.719 129.238ZM315.297 42.8125V185H296.449V42.8125H315.297ZM401.137 42.8125L342.055 109.121L308.852 143.594L305.727 123.477L330.727 95.9375L378.48 42.8125H401.137ZM382.973 185L330.336 115.664L341.566 100.723L405.434 185H382.973Z" fill="black"/>
<path d="M11.0625 213.266L3.53125 234H0.453125L9.125 211.25H11.1094L11.0625 213.266ZM17.375 234L9.82812 213.266L9.78125 211.25H11.7656L20.4688 234H17.375ZM16.9844 225.578V228.047H4.20312V225.578H16.9844ZM48.1406 222.672V231C47.8594 231.417 47.4115 231.885 46.7969 232.406C46.1823 232.917 45.3333 233.365 44.25 233.75C43.1771 234.125 41.7917 234.312 40.0938 234.312C38.7083 234.312 37.4323 234.073 36.2656 233.594C35.1094 233.104 34.1042 232.396 33.25 231.469C32.4062 230.531 31.75 229.396 31.2812 228.062C30.8229 226.719 30.5938 225.198 30.5938 223.5V221.734C30.5938 220.036 30.7917 218.521 31.1875 217.188C31.5938 215.854 32.1875 214.724 32.9688 213.797C33.75 212.859 34.7083 212.151 35.8438 211.672C36.9792 211.182 38.2812 210.938 39.75 210.938C41.4896 210.938 42.9427 211.24 44.1094 211.844C45.2865 212.438 46.2031 213.26 46.8594 214.312C47.526 215.365 47.9531 216.562 48.1406 217.906H45.125C44.9896 217.083 44.7188 216.333 44.3125 215.656C43.9167 214.979 43.349 214.438 42.6094 214.031C41.8698 213.615 40.9167 213.406 39.75 213.406C38.6979 213.406 37.7865 213.599 37.0156 213.984C36.2448 214.37 35.6094 214.922 35.1094 215.641C34.6094 216.359 34.2344 217.229 33.9844 218.25C33.7448 219.271 33.625 220.422 33.625 221.703V223.5C33.625 224.812 33.776 225.984 34.0781 227.016C34.3906 228.047 34.8333 228.927 35.4062 229.656C35.9792 230.375 36.6615 230.922 37.4531 231.297C38.2552 231.672 39.1406 231.859 40.1094 231.859C41.1823 231.859 42.0521 231.771 42.7188 231.594C43.3854 231.406 43.9062 231.188 44.2812 230.938C44.6562 230.677 44.9427 230.432 45.1406 230.203V225.109H39.875V222.672H48.1406ZM61.1406 211.25H68.6719C70.3802 211.25 71.8229 211.51 73 212.031C74.1875 212.552 75.0885 213.323 75.7031 214.344C76.3281 215.354 76.6406 216.599 76.6406 218.078C76.6406 219.12 76.4271 220.073 76 220.938C75.5833 221.792 74.9792 222.521 74.1875 223.125C73.4062 223.719 72.4688 224.161 71.375 224.453L70.5312 224.781H63.4531L63.4219 222.328H68.7656C69.849 222.328 70.75 222.141 71.4688 221.766C72.1875 221.38 72.7292 220.865 73.0938 220.219C73.4583 219.573 73.6406 218.859 73.6406 218.078C73.6406 217.203 73.4688 216.438 73.125 215.781C72.7812 215.125 72.2396 214.62 71.5 214.266C70.7708 213.901 69.8281 213.719 68.6719 213.719H64.1562V234H61.1406V211.25ZM74.4375 234L68.9062 223.688L72.0469 223.672L77.6562 233.812V234H74.4375ZM106.375 221.906V223.344C106.375 225.052 106.161 226.583 105.734 227.938C105.307 229.292 104.693 230.443 103.891 231.391C103.089 232.339 102.125 233.062 101 233.562C99.8854 234.062 98.6354 234.312 97.25 234.312C95.9062 234.312 94.6719 234.062 93.5469 233.562C92.4323 233.062 91.4635 232.339 90.6406 231.391C89.8281 230.443 89.1979 229.292 88.75 227.938C88.3021 226.583 88.0781 225.052 88.0781 223.344V221.906C88.0781 220.198 88.2969 218.672 88.7344 217.328C89.1823 215.974 89.8125 214.823 90.625 213.875C91.4375 212.917 92.401 212.188 93.5156 211.688C94.6406 211.188 95.875 210.938 97.2188 210.938C98.6042 210.938 99.8542 211.188 100.969 211.688C102.094 212.188 103.057 212.917 103.859 213.875C104.672 214.823 105.292 215.974 105.719 217.328C106.156 218.672 106.375 220.198 106.375 221.906ZM103.391 223.344V221.875C103.391 220.521 103.25 219.323 102.969 218.281C102.698 217.24 102.297 216.365 101.766 215.656C101.234 214.948 100.583 214.411 99.8125 214.047C99.0521 213.682 98.1875 213.5 97.2188 213.5C96.2812 213.5 95.4323 213.682 94.6719 214.047C93.9219 214.411 93.276 214.948 92.7344 215.656C92.2031 216.365 91.7917 217.24 91.5 218.281C91.2083 219.323 91.0625 220.521 91.0625 221.875V223.344C91.0625 224.708 91.2083 225.917 91.5 226.969C91.7917 228.01 92.2083 228.891 92.75 229.609C93.3021 230.318 93.9531 230.854 94.7031 231.219C95.4635 231.583 96.3125 231.766 97.25 231.766C98.2292 231.766 99.099 231.583 99.8594 231.219C100.62 230.854 101.26 230.318 101.781 229.609C102.312 228.891 102.714 228.01 102.984 226.969C103.255 225.917 103.391 224.708 103.391 223.344ZM124.469 223.141V225.516H116.844V223.141H124.469ZM138.969 211.25V234H135.953V211.25H138.969ZM169.953 211.25V234H166.922L155.469 216.453V234H152.453V211.25H155.469L166.969 228.844V211.25H169.953ZM191.234 211.25V234H188.266V211.25H191.234ZM198.547 211.25V213.719H180.969V211.25H198.547ZM224.375 231.547V234H212.328V231.547H224.375ZM212.938 211.25V234H209.922V211.25H212.938ZM222.781 221.031V223.484H212.328V221.031H222.781ZM224.219 211.25V213.719H212.328V211.25H224.219ZM249.906 231.547V234H238.531V231.547H249.906ZM239.125 211.25V234H236.109V211.25H239.125ZM275.156 231.547V234H263.781V231.547H275.156ZM264.375 211.25V234H261.359V211.25H264.375ZM289.844 211.25V234H286.828V211.25H289.844ZM320.141 222.672V231C319.859 231.417 319.411 231.885 318.797 232.406C318.182 232.917 317.333 233.365 316.25 233.75C315.177 234.125 313.792 234.312 312.094 234.312C310.708 234.312 309.432 234.073 308.266 233.594C307.109 233.104 306.104 232.396 305.25 231.469C304.406 230.531 303.75 229.396 303.281 228.062C302.823 226.719 302.594 225.198 302.594 223.5V221.734C302.594 220.036 302.792 218.521 303.188 217.188C303.594 215.854 304.188 214.724 304.969 213.797C305.75 212.859 306.708 212.151 307.844 211.672C308.979 211.182 310.281 210.938 311.75 210.938C313.49 210.938 314.943 211.24 316.109 211.844C317.286 212.438 318.203 213.26 318.859 214.312C319.526 215.365 319.953 216.562 320.141 217.906H317.125C316.99 217.083 316.719 216.333 316.312 215.656C315.917 214.979 315.349 214.438 314.609 214.031C313.87 213.615 312.917 213.406 311.75 213.406C310.698 213.406 309.786 213.599 309.016 213.984C308.245 214.37 307.609 214.922 307.109 215.641C306.609 216.359 306.234 217.229 305.984 218.25C305.745 219.271 305.625 220.422 305.625 221.703V223.5C305.625 224.812 305.776 225.984 306.078 227.016C306.391 228.047 306.833 228.927 307.406 229.656C307.979 230.375 308.661 230.922 309.453 231.297C310.255 231.672 311.141 231.859 312.109 231.859C313.182 231.859 314.052 231.771 314.719 231.594C315.385 231.406 315.906 231.188 316.281 230.938C316.656 230.677 316.943 230.432 317.141 230.203V225.109H311.875V222.672H320.141ZM347.594 231.547V234H335.547V231.547H347.594ZM336.156 211.25V234H333.141V211.25H336.156ZM346 221.031V223.484H335.547V221.031H346ZM347.438 211.25V213.719H335.547V211.25H347.438ZM376.828 211.25V234H373.797L362.344 216.453V234H359.328V211.25H362.344L373.844 228.844V211.25H376.828ZM403.906 226.766H406.906C406.75 228.203 406.339 229.49 405.672 230.625C405.005 231.76 404.062 232.661 402.844 233.328C401.625 233.984 400.104 234.312 398.281 234.312C396.948 234.312 395.734 234.062 394.641 233.562C393.557 233.062 392.625 232.354 391.844 231.438C391.062 230.51 390.458 229.401 390.031 228.109C389.615 226.807 389.406 225.359 389.406 223.766V221.5C389.406 219.906 389.615 218.464 390.031 217.172C390.458 215.87 391.068 214.755 391.859 213.828C392.661 212.901 393.625 212.188 394.75 211.688C395.875 211.188 397.141 210.938 398.547 210.938C400.266 210.938 401.719 211.26 402.906 211.906C404.094 212.552 405.016 213.448 405.672 214.594C406.339 215.729 406.75 217.047 406.906 218.547H403.906C403.76 217.484 403.49 216.573 403.094 215.812C402.698 215.042 402.135 214.448 401.406 214.031C400.677 213.615 399.724 213.406 398.547 213.406C397.536 213.406 396.646 213.599 395.875 213.984C395.115 214.37 394.474 214.917 393.953 215.625C393.443 216.333 393.057 217.182 392.797 218.172C392.536 219.161 392.406 220.26 392.406 221.469V223.766C392.406 224.88 392.521 225.927 392.75 226.906C392.99 227.885 393.349 228.745 393.828 229.484C394.307 230.224 394.917 230.807 395.656 231.234C396.396 231.651 397.271 231.859 398.281 231.859C399.562 231.859 400.583 231.656 401.344 231.25C402.104 230.844 402.677 230.26 403.062 229.5C403.458 228.74 403.74 227.828 403.906 226.766ZM433.469 231.547V234H421.422V231.547H433.469ZM422.031 211.25V234H419.016V211.25H422.031ZM431.875 221.031V223.484H421.422V221.031H431.875ZM433.312 211.25V213.719H421.422V211.25H433.312Z" fill="url(#paint0_linear_13_2)"/>
<defs>
<linearGradient id="paint0_linear_13_2" x1="449.678" y1="-40.2857" x2="456.579" y2="241.994" gradientUnits="userSpaceOnUse">
<stop offset="0.827582" stop-color="#069124"/>
<stop offset="1" stop-color="#BDFF00"/>
</linearGradient>
</defs>
</svg>
