<svg width="342" height="378" viewBox="0 0 342 378" fill="none" xmlns="http://www.w3.org/2000/svg">
<path d="M38 153.5L97 231L129.5 205L71 126L38 153.5Z" fill="#760BA6"/>
<path d="M78.5 136L39 154L72 127L78.5 136Z" fill="#5E0386"/>
<path d="M55.9444 91.1789C38.6736 106.213 17.9488 123.073 38.6736 154L213 13.3235C205.084 0.795107 182.992 -9.01283 155.791 13.3236L55.9444 91.1789Z" fill="#C64FF9"/>
<path d="M304 125.5L245 48L212.5 74L271 153L304 125.5Z" fill="#15B6BF"/>
<path d="M286.056 187.821C303.326 172.787 324.051 155.927 303.326 125L129 265.676C136.916 278.205 159.008 288.013 186.209 265.676L286.056 187.821Z" fill="#25EFF6"/>
<g filter="url(#filter0_d_3_56)">
<path d="M26.3013 325.963C26.9321 325.963 27.3774 326.112 27.6372 326.409C27.9155 326.687 28.0547 327.169 28.0547 327.856C28.0547 328.542 27.9155 329.034 27.6372 329.331C27.3774 329.609 26.9321 329.749 26.3013 329.749H19.1763V355.215H26.8579C27.4888 355.215 27.9341 355.363 28.1938 355.66C28.4722 355.938 28.6113 356.421 28.6113 357.107C28.6113 357.794 28.4722 358.286 28.1938 358.583C27.9341 358.861 27.4888 359 26.8579 359H7.31982C6.68896 359 6.23438 358.861 5.95605 358.583C5.69629 358.286 5.56641 357.794 5.56641 357.107C5.56641 356.421 5.69629 355.938 5.95605 355.66C6.23438 355.363 6.68896 355.215 7.31982 355.215H15.0015V329.749H7.87646C7.24561 329.749 6.79102 329.609 6.5127 329.331C6.25293 329.034 6.12305 328.542 6.12305 327.856C6.12305 327.169 6.25293 326.687 6.5127 326.409C6.79102 326.112 7.24561 325.963 7.87646 325.963H26.3013ZM54.4116 332.671C56.1001 332.671 57.5659 333.042 58.8091 333.784C60.0522 334.508 61.0078 335.556 61.6758 336.929C62.3438 338.302 62.6777 339.907 62.6777 341.744V355.215H64.96C65.5908 355.215 66.0361 355.363 66.2959 355.66C66.5742 355.938 66.7134 356.421 66.7134 357.107C66.7134 357.794 66.5742 358.286 66.2959 358.583C66.0361 358.861 65.5908 359 64.96 359H55.9424C55.3115 359 54.8569 358.861 54.5786 358.583C54.3188 358.286 54.189 357.794 54.189 357.107C54.189 356.421 54.3188 355.938 54.5786 355.66C54.8569 355.363 55.3115 355.215 55.9424 355.215H58.5029V342.162C58.5029 340.51 58.1226 339.202 57.3618 338.237C56.6011 337.272 55.4785 336.79 53.9941 336.79C52.417 336.79 50.9419 337.245 49.5688 338.154C48.2144 339.063 47.1289 340.315 46.3125 341.911C45.4961 343.507 45.0879 345.288 45.0879 347.255V355.215H47.6484C48.2793 355.215 48.7246 355.363 48.9844 355.66C49.2627 355.938 49.4019 356.421 49.4019 357.107C49.4019 357.794 49.2627 358.286 48.9844 358.583C48.7246 358.861 48.2793 359 47.6484 359H38.6309C38 359 37.5454 358.861 37.2671 358.583C37.0073 358.286 36.8774 357.794 36.8774 357.107C36.8774 356.421 37.0073 355.938 37.2671 355.66C37.5454 355.363 38 355.215 38.6309 355.215H40.9131V337.068H38.0742C37.4434 337.068 36.9888 336.929 36.7104 336.651C36.4507 336.354 36.3208 335.862 36.3208 335.176C36.3208 334.489 36.4507 334.007 36.7104 333.729C36.9888 333.432 37.4434 333.283 38.0742 333.283H43.0562C43.687 333.283 44.1323 333.432 44.3921 333.729C44.6704 334.007 44.8096 334.489 44.8096 335.176V338.516C46.0342 336.623 47.4629 335.176 49.0957 334.174C50.7471 333.172 52.519 332.671 54.4116 332.671ZM81.1025 325.351C81.8633 325.351 82.4014 325.49 82.7168 325.769C83.0322 326.047 83.1899 326.511 83.1899 327.16V335.51H94.6289C95.2598 335.51 95.7051 335.658 95.9648 335.955C96.2432 336.233 96.3823 336.716 96.3823 337.402C96.3823 338.089 96.2432 338.581 95.9648 338.877C95.7051 339.156 95.2598 339.295 94.6289 339.295H83.1899V349.426C83.1899 351.541 83.5518 353.09 84.2754 354.074C85.0176 355.057 86.2979 355.549 88.1162 355.549C89.3594 355.549 90.6675 355.298 92.0405 354.797C93.4136 354.296 94.7402 353.628 96.0205 352.793C96.2803 352.608 96.5679 352.515 96.8833 352.515C97.5142 352.515 98.0522 352.942 98.4976 353.795C98.7388 354.278 98.8594 354.695 98.8594 355.048C98.8594 355.642 98.5532 356.124 97.9409 356.495C96.4937 357.404 94.8794 358.156 93.0981 358.75C91.3169 359.325 89.6562 359.612 88.1162 359.612C84.9619 359.612 82.6519 358.796 81.186 357.163C79.7388 355.512 79.0151 353.053 79.0151 349.788V339.295H73.3652C72.7344 339.295 72.2798 339.156 72.0015 338.877C71.7417 338.581 71.6118 338.089 71.6118 337.402C71.6118 336.716 71.7417 336.233 72.0015 335.955C72.2798 335.658 72.7344 335.51 73.3652 335.51H79.0151V327.16C79.0151 326.511 79.1729 326.047 79.4883 325.769C79.8037 325.49 80.3418 325.351 81.1025 325.351ZM119.873 332.671C122.563 332.671 124.854 333.218 126.747 334.313C128.658 335.389 130.124 336.892 131.145 338.822C132.165 340.733 132.75 342.941 132.898 345.446C132.898 346.077 132.759 346.522 132.48 346.782C132.221 347.042 131.775 347.171 131.145 347.171H110.994C111.124 349.936 111.94 352.033 113.443 353.461C114.965 354.872 117.108 355.577 119.873 355.577C121.58 355.577 123.268 355.363 124.938 354.937C126.608 354.491 128.074 353.907 129.335 353.183C129.651 353.016 129.938 352.933 130.198 352.933C130.848 352.933 131.376 353.424 131.785 354.408C131.952 354.797 132.035 355.15 132.035 355.465C132.035 356.208 131.627 356.783 130.811 357.191C129.382 357.915 127.693 358.499 125.745 358.944C123.797 359.39 121.839 359.612 119.873 359.612C117.071 359.612 114.677 359.074 112.692 357.998C110.707 356.922 109.194 355.373 108.155 353.35C107.116 351.328 106.597 348.925 106.597 346.142C106.597 343.488 107.163 341.141 108.294 339.1C109.426 337.059 110.994 335.482 112.998 334.369C115.002 333.237 117.293 332.671 119.873 332.671ZM119.873 336.707C117.59 336.707 115.698 337.291 114.195 338.46C112.71 339.61 111.736 341.215 111.272 343.275H128.278C127.888 341.141 126.988 339.518 125.578 338.404C124.187 337.272 122.285 336.707 119.873 336.707ZM154.523 322.484C155.154 322.484 155.6 322.633 155.859 322.93C156.138 323.208 156.277 323.69 156.277 324.377V355.215H165.211C165.842 355.215 166.287 355.363 166.547 355.66C166.825 355.938 166.964 356.421 166.964 357.107C166.964 357.794 166.825 358.286 166.547 358.583C166.287 358.861 165.842 359 165.211 359H143.391C142.76 359 142.305 358.861 142.027 358.583C141.767 358.286 141.637 357.794 141.637 357.107C141.637 356.421 141.767 355.938 142.027 355.66C142.305 355.363 142.76 355.215 143.391 355.215H152.102V326.27H144.504C143.873 326.27 143.418 326.13 143.14 325.852C142.88 325.555 142.75 325.063 142.75 324.377C142.75 323.69 142.88 323.208 143.14 322.93C143.418 322.633 143.873 322.484 144.504 322.484H154.523ZM188.979 333.283C189.61 333.283 190.056 333.432 190.315 333.729C190.594 334.007 190.733 334.489 190.733 335.176V355.215H199.667C200.298 355.215 200.743 355.363 201.003 355.66C201.281 355.938 201.42 356.421 201.42 357.107C201.42 357.794 201.281 358.286 201.003 358.583C200.743 358.861 200.298 359 199.667 359H177.847C177.216 359 176.761 358.861 176.483 358.583C176.223 358.286 176.093 357.794 176.093 357.107C176.093 356.421 176.223 355.938 176.483 355.66C176.761 355.363 177.216 355.215 177.847 355.215H186.558V337.068H179.517C178.886 337.068 178.431 336.929 178.153 336.651C177.893 336.354 177.763 335.862 177.763 335.176C177.763 334.489 177.893 334.007 178.153 333.729C178.431 333.432 178.886 333.283 179.517 333.283H188.979ZM188.089 321.065C189.109 321.065 189.805 321.204 190.176 321.482C190.547 321.742 190.733 322.206 190.733 322.874V326.492C190.733 327.16 190.547 327.633 190.176 327.912C189.805 328.171 189.109 328.301 188.089 328.301C187.068 328.301 186.373 328.171 186.001 327.912C185.63 327.633 185.445 327.16 185.445 326.492V322.874C185.445 322.206 185.63 321.742 186.001 321.482C186.373 321.204 187.068 321.065 188.089 321.065ZM232.871 325.351C233.631 325.351 234.169 325.49 234.485 325.769C234.8 326.047 234.958 326.511 234.958 327.16V336.345C234.958 336.994 234.8 337.458 234.485 337.736C234.169 338.015 233.631 338.154 232.871 338.154C232.11 338.154 231.572 338.015 231.256 337.736C230.941 337.458 230.783 336.994 230.783 336.345C230.783 335.083 230.496 333.933 229.92 332.894C229.364 331.854 228.501 331.029 227.332 330.417C226.163 329.786 224.716 329.47 222.99 329.47C220.986 329.47 219.205 329.999 217.646 331.057C216.106 332.114 214.9 333.626 214.028 335.593C213.175 337.56 212.748 339.861 212.748 342.496C212.748 345.13 213.156 347.431 213.973 349.398C214.789 351.346 215.949 352.849 217.452 353.907C218.955 354.964 220.708 355.493 222.712 355.493C224.549 355.493 226.302 355.224 227.972 354.686C229.642 354.148 231.145 353.369 232.481 352.348C232.796 352.088 233.14 351.958 233.511 351.958C234.067 351.958 234.559 352.32 234.986 353.044C235.32 353.601 235.487 354.092 235.487 354.519C235.487 355.076 235.199 355.558 234.624 355.966C232.898 357.172 231.015 358.082 228.974 358.694C226.952 359.306 224.864 359.612 222.712 359.612C219.817 359.612 217.285 358.907 215.114 357.497C212.961 356.068 211.292 354.064 210.104 351.485C208.935 348.906 208.351 345.91 208.351 342.496C208.351 339.1 208.954 336.113 210.16 333.534C211.366 330.936 213.054 328.923 215.225 327.494C217.415 326.065 219.91 325.351 222.712 325.351C224.456 325.351 226.005 325.648 227.36 326.242C228.714 326.835 229.855 327.68 230.783 328.774V327.16C230.783 326.511 230.941 326.047 231.256 325.769C231.572 325.49 232.11 325.351 232.871 325.351ZM256.333 332.671C258.875 332.671 261.167 333.246 263.208 334.396C265.249 335.547 266.844 337.152 267.995 339.211C269.164 341.252 269.748 343.562 269.748 346.142C269.748 348.721 269.164 351.04 267.995 353.1C266.844 355.141 265.249 356.736 263.208 357.887C261.167 359.037 258.875 359.612 256.333 359.612C253.791 359.612 251.5 359.037 249.458 357.887C247.417 356.736 245.812 355.141 244.644 353.1C243.493 351.04 242.918 348.721 242.918 346.142C242.918 343.562 243.493 341.252 244.644 339.211C245.812 337.152 247.417 335.547 249.458 334.396C251.5 333.246 253.791 332.671 256.333 332.671ZM256.333 336.79C254.533 336.79 252.947 337.189 251.574 337.987C250.219 338.766 249.171 339.87 248.429 341.299C247.687 342.709 247.315 344.323 247.315 346.142C247.315 347.96 247.687 349.583 248.429 351.012C249.171 352.422 250.219 353.526 251.574 354.324C252.947 355.104 254.533 355.493 256.333 355.493C258.133 355.493 259.71 355.104 261.064 354.324C262.438 353.526 263.495 352.422 264.237 351.012C264.979 349.583 265.351 347.96 265.351 346.142C265.351 344.323 264.979 342.709 264.237 341.299C263.495 339.87 262.438 338.766 261.064 337.987C259.71 337.189 258.133 336.79 256.333 336.79ZM300.224 322.484C300.855 322.484 301.3 322.633 301.56 322.93C301.838 323.208 301.978 323.69 301.978 324.377V355.215H304.26C304.891 355.215 305.336 355.363 305.596 355.66C305.874 355.938 306.013 356.421 306.013 357.107C306.013 357.794 305.874 358.286 305.596 358.583C305.336 358.861 304.891 359 304.26 359H299.834C299.204 359 298.749 358.861 298.471 358.583C298.211 358.286 298.081 357.794 298.081 357.107V354.881C296.912 356.402 295.558 357.571 294.018 358.388C292.478 359.204 290.798 359.612 288.98 359.612C286.679 359.612 284.62 359.074 282.801 357.998C280.983 356.903 279.554 355.345 278.515 353.322C277.476 351.281 276.957 348.888 276.957 346.142C276.957 343.396 277.476 341.011 278.515 338.989C279.554 336.948 280.983 335.389 282.801 334.313C284.62 333.218 286.679 332.671 288.98 332.671C292.468 332.671 295.409 334.202 297.803 337.263V326.27H293.294C292.663 326.27 292.208 326.13 291.93 325.852C291.67 325.555 291.541 325.063 291.541 324.377C291.541 323.69 291.67 323.208 291.93 322.93C292.208 322.633 292.663 322.484 293.294 322.484H300.224ZM289.258 336.79C287.607 336.79 286.188 337.189 285 337.987C283.812 338.766 282.903 339.861 282.272 341.271C281.66 342.681 281.354 344.305 281.354 346.142C281.354 347.979 281.66 349.602 282.272 351.012C282.903 352.422 283.812 353.526 285 354.324C286.188 355.104 287.607 355.493 289.258 355.493C290.91 355.493 292.375 355.122 293.656 354.38C294.955 353.638 295.966 352.562 296.689 351.151C297.432 349.741 297.803 348.071 297.803 346.142C297.803 344.212 297.432 342.542 296.689 341.132C295.966 339.722 294.955 338.646 293.656 337.903C292.375 337.161 290.91 336.79 289.258 336.79ZM324.939 332.671C327.629 332.671 329.921 333.218 331.813 334.313C333.725 335.389 335.19 336.892 336.211 338.822C337.231 340.733 337.816 342.941 337.964 345.446C337.964 346.077 337.825 346.522 337.547 346.782C337.287 347.042 336.842 347.171 336.211 347.171H316.061C316.19 349.936 317.007 352.033 318.51 353.461C320.031 354.872 322.174 355.577 324.939 355.577C326.646 355.577 328.334 355.363 330.004 354.937C331.674 354.491 333.14 353.907 334.402 353.183C334.717 353.016 335.005 352.933 335.265 352.933C335.914 352.933 336.443 353.424 336.851 354.408C337.018 354.797 337.102 355.15 337.102 355.465C337.102 356.208 336.693 356.783 335.877 357.191C334.448 357.915 332.76 358.499 330.812 358.944C328.863 359.39 326.906 359.612 324.939 359.612C322.137 359.612 319.744 359.074 317.758 357.998C315.773 356.922 314.261 355.373 313.222 353.35C312.183 351.328 311.663 348.925 311.663 346.142C311.663 343.488 312.229 341.141 313.361 339.1C314.493 337.059 316.061 335.482 318.064 334.369C320.068 333.237 322.36 332.671 324.939 332.671ZM324.939 336.707C322.657 336.707 320.764 337.291 319.261 338.46C317.777 339.61 316.803 341.215 316.339 343.275H333.344C332.955 341.141 332.055 339.518 330.645 338.404C329.253 337.272 327.351 336.707 324.939 336.707Z" fill="#E2DFDF"/>
</g>
<path d="M263 142L303 124L270.5 152L263 142Z" fill="#028588"/>
<defs>
<filter id="filter0_d_3_56" x="1.56641" y="321.065" width="340.398" height="46.5474" filterUnits="userSpaceOnUse" color-interpolation-filters="sRGB">
<feFlood flood-opacity="0" result="BackgroundImageFix"/>
<feColorMatrix in="SourceAlpha" type="matrix" values="0 0 0 0 0 0 0 0 0 0 0 0 0 0 0 0 0 0 127 0" result="hardAlpha"/>
<feOffset dy="4"/>
<feGaussianBlur stdDeviation="2"/>
<feComposite in2="hardAlpha" operator="out"/>
<feColorMatrix type="matrix" values="0 0 0 0 0 0 0 0 0 0 0 0 0 0 0 0 0 0 0.25 0"/>
<feBlend mode="normal" in2="BackgroundImageFix" result="effect1_dropShadow_3_56"/>
<feBlend mode="normal" in="SourceGraphic" in2="effect1_dropShadow_3_56" result="shape"/>
</filter>
</defs>
</svg>
