<svg width="395" height="235" viewBox="0 0 395 235" fill="none" xmlns="http://www.w3.org/2000/svg">
<path d="M125.879 42.8125V185H106.934L35.3516 75.332V185H16.5039V42.8125H35.3516L107.227 152.773V42.8125H125.879ZM211.719 129.238H173.73V113.906H211.719C219.076 113.906 225.033 112.734 229.59 110.391C234.147 108.047 237.467 104.792 239.551 100.625C241.699 96.4583 242.773 91.7057 242.773 86.3672C242.773 81.4844 241.699 76.8945 239.551 72.5977C237.467 68.3008 234.147 64.8503 229.59 62.2461C225.033 59.5768 219.076 58.2422 211.719 58.2422H178.125V185H159.277V42.8125H211.719C222.461 42.8125 231.543 44.668 238.965 48.3789C246.387 52.0898 252.018 57.2331 255.859 63.8086C259.701 70.319 261.621 77.7734 261.621 86.1719C261.621 95.2865 259.701 103.066 255.859 109.512C252.018 115.957 246.387 120.872 238.965 124.258C231.543 127.578 222.461 129.238 211.719 129.238ZM304.297 42.8125V185H285.449V42.8125H304.297ZM390.137 42.8125L331.055 109.121L297.852 143.594L294.727 123.477L319.727 95.9375L367.48 42.8125H390.137ZM371.973 185L319.336 115.664L330.566 100.723L394.434 185H371.973Z" fill="black"/>
<path d="M42.2969 213.449L36.6484 229H34.3398L40.8438 211.938H42.332L42.2969 213.449ZM47.0312 229L41.3711 213.449L41.3359 211.938H42.8242L49.3516 229H47.0312ZM46.7383 222.684V224.535H37.1523V222.684H46.7383ZM70.1055 220.504V226.75C69.8945 227.062 69.5586 227.414 69.0977 227.805C68.6367 228.188 68 228.523 67.1875 228.812C66.3828 229.094 65.3438 229.234 64.0703 229.234C63.0312 229.234 62.0742 229.055 61.1992 228.695C60.332 228.328 59.5781 227.797 58.9375 227.102C58.3047 226.398 57.8125 225.547 57.4609 224.547C57.1172 223.539 56.9453 222.398 56.9453 221.125V219.801C56.9453 218.527 57.0938 217.391 57.3906 216.391C57.6953 215.391 58.1406 214.543 58.7266 213.848C59.3125 213.145 60.0312 212.613 60.8828 212.254C61.7344 211.887 62.7109 211.703 63.8125 211.703C65.1172 211.703 66.207 211.93 67.082 212.383C67.9648 212.828 68.6523 213.445 69.1445 214.234C69.6445 215.023 69.9648 215.922 70.1055 216.93H67.8438C67.7422 216.312 67.5391 215.75 67.2344 215.242C66.9375 214.734 66.5117 214.328 65.957 214.023C65.4023 213.711 64.6875 213.555 63.8125 213.555C63.0234 213.555 62.3398 213.699 61.7617 213.988C61.1836 214.277 60.707 214.691 60.332 215.23C59.957 215.77 59.6758 216.422 59.4883 217.188C59.3086 217.953 59.2188 218.816 59.2188 219.777V221.125C59.2188 222.109 59.332 222.988 59.5586 223.762C59.793 224.535 60.125 225.195 60.5547 225.742C60.9844 226.281 61.4961 226.691 62.0898 226.973C62.6914 227.254 63.3555 227.395 64.082 227.395C64.8867 227.395 65.5391 227.328 66.0391 227.195C66.5391 227.055 66.9297 226.891 67.2109 226.703C67.4922 226.508 67.707 226.324 67.8555 226.152V222.332H63.9062V220.504H70.1055ZM79.8555 211.938H85.5039C86.7852 211.938 87.8672 212.133 88.75 212.523C89.6406 212.914 90.3164 213.492 90.7773 214.258C91.2461 215.016 91.4805 215.949 91.4805 217.059C91.4805 217.84 91.3203 218.555 91 219.203C90.6875 219.844 90.2344 220.391 89.6406 220.844C89.0547 221.289 88.3516 221.621 87.5312 221.84L86.8984 222.086H81.5898L81.5664 220.246H85.5742C86.3867 220.246 87.0625 220.105 87.6016 219.824C88.1406 219.535 88.5469 219.148 88.8203 218.664C89.0938 218.18 89.2305 217.645 89.2305 217.059C89.2305 216.402 89.1016 215.828 88.8438 215.336C88.5859 214.844 88.1797 214.465 87.625 214.199C87.0781 213.926 86.3711 213.789 85.5039 213.789H82.1172V229H79.8555V211.938ZM89.8281 229L85.6797 221.266L88.0352 221.254L92.2422 228.859V229H89.8281ZM113.781 219.93V221.008C113.781 222.289 113.621 223.438 113.301 224.453C112.98 225.469 112.52 226.332 111.918 227.043C111.316 227.754 110.594 228.297 109.75 228.672C108.914 229.047 107.977 229.234 106.938 229.234C105.93 229.234 105.004 229.047 104.16 228.672C103.324 228.297 102.598 227.754 101.98 227.043C101.371 226.332 100.898 225.469 100.562 224.453C100.227 223.438 100.059 222.289 100.059 221.008V219.93C100.059 218.648 100.223 217.504 100.551 216.496C100.887 215.48 101.359 214.617 101.969 213.906C102.578 213.188 103.301 212.641 104.137 212.266C104.98 211.891 105.906 211.703 106.914 211.703C107.953 211.703 108.891 211.891 109.727 212.266C110.57 212.641 111.293 213.188 111.895 213.906C112.504 214.617 112.969 215.48 113.289 216.496C113.617 217.504 113.781 218.648 113.781 219.93ZM111.543 221.008V219.906C111.543 218.891 111.438 217.992 111.227 217.211C111.023 216.43 110.723 215.773 110.324 215.242C109.926 214.711 109.438 214.309 108.859 214.035C108.289 213.762 107.641 213.625 106.914 213.625C106.211 213.625 105.574 213.762 105.004 214.035C104.441 214.309 103.957 214.711 103.551 215.242C103.152 215.773 102.844 216.43 102.625 217.211C102.406 217.992 102.297 218.891 102.297 219.906V221.008C102.297 222.031 102.406 222.938 102.625 223.727C102.844 224.508 103.156 225.168 103.562 225.707C103.977 226.238 104.465 226.641 105.027 226.914C105.598 227.188 106.234 227.324 106.938 227.324C107.672 227.324 108.324 227.188 108.895 226.914C109.465 226.641 109.945 226.238 110.336 225.707C110.734 225.168 111.035 224.508 111.238 223.727C111.441 222.938 111.543 222.031 111.543 221.008ZM127.352 220.855V222.637H121.633V220.855H127.352ZM138.227 211.938V229H135.965V211.938H138.227ZM161.465 211.938V229H159.191L150.602 215.84V229H148.34V211.938H150.602L159.227 225.133V211.938H161.465ZM177.426 211.938V229H175.199V211.938H177.426ZM182.91 211.938V213.789H169.727V211.938H182.91ZM202.281 227.16V229H193.246V227.16H202.281ZM193.703 211.938V229H191.441V211.938H193.703ZM201.086 219.273V221.113H193.246V219.273H201.086ZM202.164 211.938V213.789H193.246V211.938H202.164ZM221.43 227.16V229H212.898V227.16H221.43ZM213.344 211.938V229H211.082V211.938H213.344ZM240.367 227.16V229H231.836V227.16H240.367ZM232.281 211.938V229H230.02V211.938H232.281ZM251.383 211.938V229H249.121V211.938H251.383ZM274.105 220.504V226.75C273.895 227.062 273.559 227.414 273.098 227.805C272.637 228.188 272 228.523 271.188 228.812C270.383 229.094 269.344 229.234 268.07 229.234C267.031 229.234 266.074 229.055 265.199 228.695C264.332 228.328 263.578 227.797 262.938 227.102C262.305 226.398 261.812 225.547 261.461 224.547C261.117 223.539 260.945 222.398 260.945 221.125V219.801C260.945 218.527 261.094 217.391 261.391 216.391C261.695 215.391 262.141 214.543 262.727 213.848C263.312 213.145 264.031 212.613 264.883 212.254C265.734 211.887 266.711 211.703 267.812 211.703C269.117 211.703 270.207 211.93 271.082 212.383C271.965 212.828 272.652 213.445 273.145 214.234C273.645 215.023 273.965 215.922 274.105 216.93H271.844C271.742 216.312 271.539 215.75 271.234 215.242C270.938 214.734 270.512 214.328 269.957 214.023C269.402 213.711 268.688 213.555 267.812 213.555C267.023 213.555 266.34 213.699 265.762 213.988C265.184 214.277 264.707 214.691 264.332 215.23C263.957 215.77 263.676 216.422 263.488 217.188C263.309 217.953 263.219 218.816 263.219 219.777V221.125C263.219 222.109 263.332 222.988 263.559 223.762C263.793 224.535 264.125 225.195 264.555 225.742C264.984 226.281 265.496 226.691 266.09 226.973C266.691 227.254 267.355 227.395 268.082 227.395C268.887 227.395 269.539 227.328 270.039 227.195C270.539 227.055 270.93 226.891 271.211 226.703C271.492 226.508 271.707 226.324 271.855 226.152V222.332H267.906V220.504H274.105ZM294.695 227.16V229H285.66V227.16H294.695ZM286.117 211.938V229H283.855V211.938H286.117ZM293.5 219.273V221.113H285.66V219.273H293.5ZM294.578 211.938V213.789H285.66V211.938H294.578ZM316.621 211.938V229H314.348L305.758 215.84V229H303.496V211.938H305.758L314.383 225.133V211.938H316.621ZM336.93 223.574H339.18C339.062 224.652 338.754 225.617 338.254 226.469C337.754 227.32 337.047 227.996 336.133 228.496C335.219 228.988 334.078 229.234 332.711 229.234C331.711 229.234 330.801 229.047 329.98 228.672C329.168 228.297 328.469 227.766 327.883 227.078C327.297 226.383 326.844 225.551 326.523 224.582C326.211 223.605 326.055 222.52 326.055 221.324V219.625C326.055 218.43 326.211 217.348 326.523 216.379C326.844 215.402 327.301 214.566 327.895 213.871C328.496 213.176 329.219 212.641 330.062 212.266C330.906 211.891 331.855 211.703 332.91 211.703C334.199 211.703 335.289 211.945 336.18 212.43C337.07 212.914 337.762 213.586 338.254 214.445C338.754 215.297 339.062 216.285 339.18 217.41H336.93C336.82 216.613 336.617 215.93 336.32 215.359C336.023 214.781 335.602 214.336 335.055 214.023C334.508 213.711 333.793 213.555 332.91 213.555C332.152 213.555 331.484 213.699 330.906 213.988C330.336 214.277 329.855 214.688 329.465 215.219C329.082 215.75 328.793 216.387 328.598 217.129C328.402 217.871 328.305 218.695 328.305 219.602V221.324C328.305 222.16 328.391 222.945 328.562 223.68C328.742 224.414 329.012 225.059 329.371 225.613C329.73 226.168 330.188 226.605 330.742 226.926C331.297 227.238 331.953 227.395 332.711 227.395C333.672 227.395 334.438 227.242 335.008 226.938C335.578 226.633 336.008 226.195 336.297 225.625C336.594 225.055 336.805 224.371 336.93 223.574ZM359.102 227.16V229H350.066V227.16H359.102ZM350.523 211.938V229H348.262V211.938H350.523ZM357.906 219.273V221.113H350.066V219.273H357.906ZM358.984 211.938V213.789H350.066V211.938H358.984Z" fill="url(#paint0_linear_13_2)"/>
<defs>
<linearGradient id="paint0_linear_13_2" x1="371" y1="27" x2="376" y2="235" gradientUnits="userSpaceOnUse">
<stop offset="0.827582" stop-color="#069124"/>
<stop offset="1" stop-color="#BDFF00"/>
</linearGradient>
</defs>
</svg>
